<mxfile host="app.diagrams.net" modified="2024-01-18T16:21:36.862Z" agent="Mozilla/5.0 (X11; Linux x86_64) AppleWebKit/537.36 (KHTML, like Gecko) Chrome/120.0.0.0 Safari/537.36" version="22.1.21" etag="rRdpuF6rheeGhJdONY9i" type="github">
  <diagram name="Page-1" id="jOMUTA9gRJfV9L422GUN">
    <mxGraphModel>
      <root>
        <mxCell id="0" />
        <mxCell id="1" parent="0" />
      </root>
    </mxGraphModel>
  </diagram>
</mxfile>
